<svg width="16" height="20" viewBox="0 0 16 20" fill="none" xmlns="http://www.w3.org/2000/svg">
<path d="M2.00977 1H14.0098C14.5402 1 15.0489 1.21071 15.424 1.58579C15.7991 1.96086 16.0098 2.46957 16.0098 3V10C16.0098 10.5304 15.7991 11.0391 15.424 11.4142C15.0489 11.7893 14.5402 12 14.0098 12H2.00977V19C2.00977 19.2652 1.90441 19.5196 1.71687 19.7071C1.52934 19.8946 1.27498 20 1.00977 20C0.744549 20 0.490195 19.8946 0.302659 19.7071C0.115122 19.5196 0.00976563 19.2652 0.00976562 19V1C0.00976563 0.734784 0.115122 0.48043 0.302659 0.292893C0.490195 0.105357 0.744549 0 1.00977 0C1.27498 0 1.52934 0.105357 1.71687 0.292893C1.90441 0.48043 2.00977 0.734784 2.00977 1ZM2.00977 10H14.0098V3H2.00977V10Z" fill="#21272A"/>
</svg>
